<svg width="26" height="26" viewBox="0 0 26 26" fill="none" xmlns="http://www.w3.org/2000/svg">
<path d="M24.5125 5.64107L15.0125 0.504911C13.775 -0.168304 12.2312 -0.168304 10.9937 0.504911L1.49375 5.64107C0.575 6.13437 0 7.05714 0 8.04375V17.9562C0 18.9429 0.56875 19.8656 1.4875 20.3589L10.9875 25.4951C11.5813 25.8143 12.2375 25.9826 12.9062 25.9942C12.9375 25.9942 12.9688 26 13 26C13.0312 26 13.0625 26 13.0938 25.9942C13.7563 25.9826 14.4188 25.8143 15.0125 25.4951L24.5125 20.3589C25.4313 19.8598 26 18.9429 26 17.9562V8.04375C26 7.05714 25.425 6.13437 24.5125 5.64107ZM11.9937 2.1125C12.3062 1.9442 12.65 1.86295 13 1.86295C13.35 1.86295 13.6938 1.9442 14.0063 2.1125L22.9562 6.95268L13 12.3848L3.04375 6.94687L11.9937 2.1125ZM2.49375 18.7571C2.1875 18.5888 2 18.2812 2 17.9562V8.53125L12 13.9924V23.8875C12 23.8875 12 23.8875 11.9937 23.8875L2.49375 18.7571ZM23.5063 18.7571L14.0063 23.8933H14V13.9924L24 8.53125V17.9504C24 18.2812 23.8125 18.5888 23.5063 18.7571Z" fill="#32BF73"/>
<path d="M9 3.5L19.5 9L17.5 10L7 4.5L9 3.5Z" fill="#32BF73"/>
</svg>
