<svg width="20" height="20" viewBox="0 0 20 20" fill="none" xmlns="http://www.w3.org/2000/svg">
<path fill-rule="evenodd" clip-rule="evenodd" d="M19.7313 0.268722C19.373 -0.0895736 18.7921 -0.0895742 18.4338 0.268721L10 8.70249L1.56623 0.268721C1.20793 -0.0895742 0.627021 -0.0895736 0.268726 0.268722C-0.0895697 0.627018 -0.0895699 1.20793 0.268726 1.56623L8.70249 10L0.268722 18.4338C-0.089574 18.7921 -0.0895738 19.373 0.268722 19.7313C0.627017 20.0896 1.20793 20.0896 1.56622 19.7313L10 11.2975L18.4338 19.7313C18.7921 20.0896 19.373 20.0896 19.7313 19.7313C20.0896 19.373 20.0896 18.7921 19.7313 18.4338L11.2975 10L19.7313 1.56623C20.0896 1.20793 20.0896 0.627018 19.7313 0.268722Z" fill="#ABABAB"/>
</svg>
