<svg width="26" height="26" viewBox="0 0 26 26" fill="none" xmlns="http://www.w3.org/2000/svg">
<path d="M25.9378 11.726L22.2225 2.44029C22.0907 2.11529 21.7331 1.85714 21.3597 1.85714H15.616C15.2314 0.779071 14.2098 0 13.0005 0C11.7912 0 10.7695 0.779071 10.3849 1.85714H4.64123C4.26506 1.85714 3.90562 2.11993 3.77837 2.44029L0.0631587 11.726C0.028793 11.8133 0.000928803 12.1216 0 12.1058C0.0204337 14.6501 2.09259 16.7143 4.64123 16.7143C7.18987 16.7143 9.26203 14.6501 9.28153 12.1067C9.28246 12.0157 9.23138 11.7576 9.21837 11.7269L6.01307 3.71429H10.3849C10.6654 4.50079 11.285 5.12014 12.0717 5.40057V20.4286H8.35644C6.8202 20.4286 5.57003 21.6784 5.57003 23.2143V25.0714C5.57003 25.584 5.98521 26 6.49884 26H19.5021C20.0157 26 20.4309 25.584 20.4309 25.0714V23.2143C20.4309 21.6784 19.1807 20.4286 17.6445 20.4286H13.9293V5.40057C14.716 5.12014 15.3355 4.50079 15.616 3.71429H19.9878L16.7825 11.726C16.7482 11.8133 16.7203 12.1216 16.7194 12.1058C16.7389 14.6501 18.8111 16.7143 21.3597 16.7143C23.9083 16.7143 25.9805 14.6501 26 12.1067C26.0009 12.0157 25.9498 11.7576 25.9378 11.726ZM18.5733 23.2143V24.1429H7.42764V23.2143C7.42764 22.7026 7.84374 22.2857 8.35644 22.2857H17.6445C18.1572 22.2857 18.5733 22.7026 18.5733 23.2143ZM23.7031 11.1429H19.0172L21.3597 5.28543L23.7031 11.1429ZM4.64123 5.28543L6.9846 11.1429H2.29786L4.64123 5.28543ZM4.64123 14.8571C3.43007 14.8571 2.39724 14.0809 2.01365 13H7.26881C6.88522 14.0809 5.85239 14.8571 4.64123 14.8571ZM13.0005 3.71429C12.4878 3.71429 12.0717 3.29736 12.0717 2.78571C12.0717 2.27407 12.4878 1.85714 13.0005 1.85714C13.5132 1.85714 13.9293 2.27407 13.9293 2.78571C13.9293 3.29736 13.5132 3.71429 13.0005 3.71429ZM21.3597 14.8571C20.1485 14.8571 19.1157 14.0809 18.7321 13H23.9873C23.6037 14.0809 22.5708 14.8571 21.3597 14.8571Z" fill="#32BF73"/>
</svg>
